PathFileType	4	(X/Y/Z)	 2.2Hz3min.trc
DataRate	CameraRate	NumFrames	NumMarkers	Units	OrigDataRate	OrigDataStartFrame	OrigNumFrames
200	200	4	43	m	200	501	1000
Frame#	Time	C7			LSH			RSH			MAN			RASI			LASI			HIPR			HIPL			RPSI			LPSI			COX			RTHI1			RTHI2			RTHI3			RTHI4			RLKN			RMKN			RSHA1			RSHA2			RSHA3			RSHA4			RLMAL			RMMAL			RHEEL			RMET5			RMET1			RTOE			LTHI1			LTHI2			LTHI3			LTHI4			LLKN			LMKN			LSHA1			LSHA2			LSHA3			LSHA4			LLMAL			LMMAL			LHEEL			LMET5			LMET1			LTOE			
		X1	Y1	Z1	X2	Y2	Z2	X3	Y3	Z3	X4	Y4	Z4	X5	Y5	Z5	X6	Y6	Z6	X7	Y7	Z7	X8	Y8	Z8	X9	Y9	Z9	X10	Y10	Z10	X11	Y11	Z11	X12	Y12	Z12	X13	Y13	Z13	X14	Y14	Z14	X15	Y15	Z15	X16	Y16	Z16	X17	Y17	Z17	X18	Y18	Z18	X19	Y19	Z19	X20	Y20	Z20	X21	Y21	Z21	X22	Y22	Z22	X23	Y23	Z23	X24	Y24	Z24	X25	Y25	Z25	X26	Y26	Z26	X27	Y27	Z27	X28	Y28	Z28	X29	Y29	Z29	X30	Y30	Z30	X31	Y31	Z31	X32	Y32	Z32	X33	Y33	Z33	X34	Y34	Z34	X35	Y35	Z35	X36	Y36	Z36	X37	Y37	Z37	X38	Y38	Z38	X39	Y39	Z39	X40	Y40	Z40	X41	Y41	Z41	X42	Y42	Z42	X43	Y43	Z43	
501	2.5050	-0.275424	1.549530	-0.579457	-0.227200	1.525020	-0.784053	-0.189183	1.495425	-0.378351	-0.142977	1.468203	-0.586553	-0.198124	1.017618	-0.472466	-0.200122	1.022282	-0.708662	-0.282105	1.069503	-0.422375	-0.283206	1.061392	-0.750048	-0.383067	1.058338	-0.538131	-0.376732	1.058839	-0.641230	-0.382720	1.056594	-0.588704	-0.267522	0.743856	-0.385678	-0.253948	0.685485	-0.382150	-0.190390	0.696580	-0.377752	-0.195698	0.757939	-0.381053	-0.225557	0.499311	-0.387525	-0.217707	0.486765	-0.518609	-0.332201	0.360439	-0.372474	-0.353972	0.324271	-0.377520	-0.298155	0.299730	-0.376471	-0.283456	0.336607	-0.375814	-0.412894	0.138870	-0.395529	-0.376241	0.133047	-0.483909	-0.470181	0.120634	-0.445232	-0.328312	0.038484	-0.362332	-0.277875	0.044412	-0.438611	-0.253698	0.033817	-0.430098	-0.267008	0.756424	-0.780060	-0.252629	0.696699	-0.782888	-0.188719	0.706086	-0.789782	-0.195666	0.765704	-0.788336	-0.224988	0.492440	-0.772913	-0.202068	0.482848	-0.647642	-0.321921	0.339307	-0.783748	-0.334980	0.296595	-0.776940	-0.283836	0.280232	-0.772606	-0.265237	0.316320	-0.778276	-0.375246	0.120653	-0.769132	-0.358086	0.121043	-0.676528	-0.444797	0.104019	-0.723717	-0.280252	0.033777	-0.786998	-0.248916	0.044500	-0.706855	-0.223587	0.033029	-0.707726	
502	2.5100	-0.275530	1.554364	-0.579350	-0.227461	1.530183	-0.783809	-0.189369	1.500599	-0.378301	-0.143277	1.473465	-0.586467	-0.197874	1.022496	-0.472595	-0.199915	1.027168	-0.708818	-0.281398	1.075377	-0.422937	-0.282701	1.067288	-0.749651	-0.382532	1.063722	-0.538218	-0.376148	1.064118	-0.641248	-0.382177	1.061943	-0.588824	-0.268241	0.748572	-0.385371	-0.254865	0.690159	-0.381818	-0.191270	0.701052	-0.377401	-0.196374	0.762425	-0.380711	-0.226993	0.504009	-0.386879	-0.218929	0.491053	-0.518053	-0.332502	0.364084	-0.371427	-0.353855	0.327692	-0.376587	-0.297783	0.303672	-0.375439	-0.283451	0.340755	-0.374710	-0.411045	0.141408	-0.394326	-0.374124	0.135694	-0.482512	-0.468027	0.123781	-0.444112	-0.327400	0.039055	-0.362218	-0.277245	0.044830	-0.438617	-0.253196	0.033896	-0.429936	-0.267747	0.761303	-0.780042	-0.253546	0.701556	-0.782910	-0.189641	0.710759	-0.790075	-0.196419	0.770405	-0.788657	-0.226237	0.497033	-0.773099	-0.202589	0.487262	-0.647901	-0.322118	0.342977	-0.783693	-0.334832	0.300189	-0.776957	-0.283534	0.284187	-0.773141	-0.265244	0.320424	-0.778831	-0.373470	0.123659	-0.769544	-0.355832	0.124082	-0.677093	-0.442690	0.107711	-0.723696	-0.279645	0.034401	-0.786747	-0.248460	0.044685	-0.706991	-0.223387	0.033087	-0.707818	
503	2.5150	-0.275626	1.559092	-0.579239	-0.227685	1.535212	-0.783568	-0.189553	1.505618	-0.378265	-0.143555	1.478575	-0.586385	-0.197679	1.027303	-0.472728	-0.199739	1.032003	-0.708984	-0.280806	1.081199	-0.423514	-0.282290	1.073074	-0.749254	-0.382028	1.069045	-0.538310	-0.375594	1.069336	-0.641259	-0.381659	1.067237	-0.588933	-0.268984	0.753187	-0.385073	-0.255799	0.694725	-0.381504	-0.192169	0.705433	-0.377045	-0.197080	0.766816	-0.380348	-0.228416	0.508616	-0.386243	-0.220140	0.495262	-0.517510	-0.332766	0.367646	-0.370391	-0.353697	0.331007	-0.375660	-0.297356	0.307551	-0.374406	-0.283407	0.344820	-0.373643	-0.409071	0.143863	-0.393074	-0.371927	0.138293	-0.481082	-0.465860	0.126869	-0.442946	-0.326409	0.039686	-0.362106	-0.276514	0.045330	-0.438652	-0.252557	0.034011	-0.429743	-0.268479	0.766128	-0.780023	-0.254443	0.706358	-0.782936	-0.190543	0.715398	-0.790393	-0.197172	0.775069	-0.789007	-0.227402	0.501567	-0.773281	-0.202999	0.491635	-0.648168	-0.322214	0.346603	-0.783614	-0.334573	0.303739	-0.776979	-0.283125	0.288108	-0.773691	-0.265152	0.324489	-0.779385	-0.371579	0.126629	-0.769963	-0.353473	0.127079	-0.677653	-0.440481	0.111385	-0.723661	-0.279006	0.035045	-0.786488	-0.247931	0.044959	-0.707090	-0.223111	0.033178	-0.707925	
504	2.5200	-0.275697	1.563666	-0.579139	-0.227848	1.540088	-0.783310	-0.189710	1.510480	-0.378244	-0.143790	1.483517	-0.586298	-0.197541	1.032015	-0.472863	-0.199594	1.036752	-0.709150	-0.280325	1.086915	-0.424079	-0.281987	1.078711	-0.748862	-0.381560	1.074279	-0.538403	-0.375077	1.074460	-0.641259	-0.381163	1.072432	-0.589016	-0.269753	0.757675	-0.384793	-0.256749	0.699172	-0.381212	-0.193086	0.709692	-0.376678	-0.197816	0.771087	-0.379966	-0.229810	0.513113	-0.385617	-0.221346	0.499359	-0.516985	-0.332979	0.371102	-0.369351	-0.353489	0.334205	-0.374707	-0.296881	0.311341	-0.373405	-0.283339	0.348775	-0.372620	-0.407009	0.146224	-0.391788	-0.369685	0.140833	-0.479633	-0.463725	0.129871	-0.441731	-0.325304	0.040413	-0.362015	-0.275683	0.045930	-0.438615	-0.251816	0.034179	-0.429507	-0.269202	0.770878	-0.780002	-0.255315	0.711077	-0.782958	-0.191429	0.719974	-0.790729	-0.197924	0.779665	-0.789377	-0.228490	0.506015	-0.773453	-0.203314	0.495955	-0.648425	-0.322214	0.350171	-0.783526	-0.334215	0.307222	-0.777002	-0.282628	0.291958	-0.774226	-0.264973	0.328487	-0.779917	-0.369596	0.129541	-0.770395	-0.350997	0.129956	-0.678249	-0.438190	0.115011	-0.723614	-0.278301	0.035680	-0.786196	-0.247304	0.045331	-0.707126	-0.222735	0.033301	-0.708045	
